<svg width="133" height="55" viewBox="0 0 133 55" fill="none" xmlns="http://www.w3.org/2000/svg">
<path d="M46.0646 48.9296C46.0702 49.0032 46.0602 49.0771 46.0351 49.1465C46.01 49.2158 45.9705 49.2791 45.9191 49.332C45.8677 49.3849 45.8056 49.4263 45.737 49.4533C45.6684 49.4804 45.5949 49.4925 45.5212 49.489C45.1196 49.489 44.7337 49.4338 44.3243 49.4338C43.9148 49.4338 43.6234 49.4338 43.2769 49.4338C43.2312 49.4284 43.1848 49.4323 43.1407 49.4454C43.0965 49.4585 43.0555 49.4805 43.0201 49.51C42.9847 49.5395 42.9558 49.5759 42.9349 49.617C42.9141 49.6581 42.9018 49.703 42.899 49.749C42.8123 50.2217 42.71 50.6944 42.5997 51.2459H44.3006C44.4975 51.2459 44.7653 51.1671 44.781 51.5138C44.79 51.581 44.7845 51.6493 44.7649 51.7141C44.7452 51.779 44.7118 51.8388 44.667 51.8896C44.6222 51.9404 44.567 51.981 44.5051 52.0086C44.4433 52.0362 44.3762 52.0502 44.3085 52.0495C43.8282 52.0495 43.3478 52.0495 42.8596 52.0495C42.3714 52.0495 42.4265 52.0496 42.3241 52.4986C42.2218 52.9477 42.1745 53.1841 42.1036 53.5229C42.0328 53.8617 42.0249 53.972 42.4501 54.0113C43.1127 54.0744 43.7798 54.0744 44.4424 54.0113C44.6314 54.0113 44.8597 53.901 44.8912 54.2319C44.9227 54.5629 44.8283 54.7835 44.5133 54.8228C43.4241 54.9764 42.3187 54.9764 41.2295 54.8228C40.8752 54.7677 40.8201 54.6653 40.9067 54.2477L41.6941 50.4423C41.7808 50.0326 41.8674 49.6544 41.9619 49.2211C42.0564 48.7878 42.1509 48.6932 42.6233 48.6302C43.6168 48.5041 44.6222 48.5041 45.6157 48.6302C45.7968 48.6302 46.0488 48.6302 46.0488 48.906" fill="#415464"/>
<path d="M52.2546 48.9769C52.2346 49.1599 52.203 49.3415 52.1601 49.5205L51.1442 54.3029C51.1442 54.3896 51.097 54.4684 51.0812 54.5471C51.0856 54.6491 51.0504 54.7487 50.9828 54.8251C50.9152 54.9016 50.8206 54.9488 50.719 54.9568C50.6054 54.9849 50.4858 54.9755 50.378 54.9301C50.2702 54.8846 50.1799 54.8056 50.1205 54.7047C50.0654 54.6023 50.0103 54.4999 49.963 54.3896C49.4197 53.3259 48.8764 52.2544 48.3251 51.1908C48.2681 51.0147 48.1615 50.8587 48.018 50.7417C47.766 51.9393 47.5219 53.1053 47.2778 54.2162C47.252 54.3444 47.2178 54.4708 47.1754 54.5944C47.138 54.6777 47.0836 54.7522 47.0157 54.8132C46.9478 54.8742 46.8679 54.9203 46.7811 54.9485C46.6943 54.9767 46.6026 54.9864 46.5118 54.977C46.421 54.9675 46.3333 54.9392 46.2541 54.8938C46.1045 54.7993 46.1438 54.6653 46.1675 54.5393C46.2698 54.0193 46.3801 53.4993 46.4903 52.9635C46.7581 51.7108 47.0179 50.4581 47.2778 49.2054C47.2778 49.1187 47.3251 49.0399 47.3408 48.9612C47.3408 48.7642 47.4353 48.5987 47.6558 48.5593C47.7623 48.535 47.8737 48.5439 47.9751 48.5847C48.0764 48.6255 48.1628 48.6964 48.2228 48.7878C48.2934 48.899 48.3565 49.0148 48.4117 49.1345L50.0812 52.3805C50.152 52.5223 50.2387 52.6641 50.3331 52.8375C50.4578 52.6122 50.5304 52.3618 50.5458 52.1048C50.7741 51.1042 50.971 50.0878 51.1915 49.0793C51.2781 48.6618 51.4592 48.5357 51.8844 48.5515C52.1758 48.5515 52.2703 48.6618 52.2467 48.9612" fill="#415464"/>
<path d="M57.8616 48.9531C57.8659 49.0277 57.8536 49.1023 57.8255 49.1715C57.7974 49.2407 57.7543 49.3028 57.6993 49.3534C57.6443 49.4039 57.5787 49.4415 57.5074 49.4636C57.4361 49.4857 57.3607 49.4916 57.2868 49.481C56.655 49.4376 56.0209 49.4376 55.389 49.481C55.2894 49.489 55.1894 49.489 55.0898 49.481C54.8457 49.481 54.7275 49.5834 54.6882 49.8198C54.6016 50.2925 54.4992 50.7652 54.3889 51.2931H56.1529C56.334 51.2931 56.5387 51.2931 56.5702 51.5294C56.584 51.6451 56.5579 51.7619 56.4963 51.8608C56.4348 51.9596 56.3414 52.0345 56.2316 52.0731C56.0185 52.111 55.8024 52.1294 55.5859 52.1282H54.4834C54.326 52.1282 54.2 52.1282 54.1606 52.3488C54.074 52.8215 53.9716 53.2943 53.8613 53.767C53.8141 53.9797 53.8614 54.0664 54.1133 54.0821C54.8073 54.1491 55.5061 54.1491 56.2001 54.0821C56.6175 54.0427 56.6568 54.0821 56.6805 54.3185C56.6805 54.6809 56.6096 54.8542 56.2867 54.8936C55.2126 55.0354 54.1244 55.0354 53.0503 54.8936C52.6723 54.8385 52.6093 54.7439 52.688 54.3421C52.8455 53.5543 53.0109 52.8137 53.1763 52.0494C53.3731 51.1355 53.5621 50.2295 53.759 49.3155C53.8692 48.8192 53.9558 48.7561 54.4519 48.6931C55.4303 48.5789 56.4187 48.5789 57.397 48.6931C57.7987 48.7404 57.8774 48.7877 57.8616 49.0004" fill="#415464"/>
<path d="M61.8931 52.3568C62.3019 52.1612 62.6435 51.8487 62.8747 51.4588C63.106 51.0689 63.2166 50.6192 63.1925 50.1665C63.2247 49.8462 63.1406 49.525 62.9555 49.2617C62.7704 48.9983 62.4967 48.8105 62.1845 48.7326C61.8015 48.6055 61.3986 48.5494 60.9954 48.5672C60.533 48.5769 60.0721 48.6243 59.6174 48.709C59.4759 48.7229 59.3436 48.7855 59.2431 48.886C59.1426 48.9866 59.08 49.1189 59.0661 49.2605C58.7118 50.9702 58.3417 52.6798 57.9794 54.3895C57.8849 54.8701 57.9794 54.9883 58.4755 54.9647C58.5938 54.9681 58.7093 54.9285 58.8006 54.8531C58.8918 54.7778 58.9526 54.6718 58.9717 54.555C59.074 54.1532 59.1606 53.7671 59.263 53.3416C59.3103 53.121 59.3024 52.8295 59.4441 52.6877C59.5859 52.5459 59.8851 52.6877 60.1135 52.6877C60.5702 52.6877 60.5702 52.6877 60.7198 53.1447C60.8694 53.6016 61.0348 54.1295 61.208 54.6101C61.2348 54.6861 61.277 54.7558 61.332 54.8147C61.387 54.8735 61.4535 54.9204 61.5275 54.9522C61.6015 54.9841 61.6813 55.0002 61.7619 54.9996C61.8424 54.999 61.922 54.9818 61.9955 54.9489C62.279 54.8622 62.3262 54.7125 62.1924 54.3028C62.0585 53.8931 61.8616 53.318 61.6884 52.8374C61.6018 52.6168 61.6175 52.4907 61.8617 52.3726M60.2867 51.8526H60.1922C59.5859 51.7974 59.5701 51.7738 59.6961 51.1986C59.7906 50.7417 59.893 50.2847 59.9796 49.8278C59.9873 49.7294 60.0308 49.6373 60.102 49.569C60.1732 49.5007 60.2669 49.461 60.3655 49.4575C60.7401 49.3867 61.1247 49.3867 61.4994 49.4575C61.6855 49.5005 61.8495 49.6098 61.9611 49.7648C62.0726 49.9199 62.124 50.1103 62.1058 50.3005C62.1017 50.5257 62.0495 50.7474 61.9526 50.9507C61.8557 51.1539 61.7163 51.3341 61.5439 51.4789C61.3715 51.6238 61.1701 51.73 60.9533 51.7904C60.7364 51.8507 60.5091 51.8639 60.2867 51.8289" fill="#415464"/>
<path d="M69.7989 49.0161C69.728 49.41 69.5548 49.6149 69.2634 49.5834C68.7831 49.5834 68.3027 49.4652 67.8224 49.4731C67.2508 49.4304 66.6833 49.5971 66.2255 49.9421C65.7677 50.2871 65.4509 50.7868 65.334 51.3482C65.1866 51.8276 65.1201 52.3281 65.1371 52.8294C65.1287 53.1172 65.2269 53.398 65.413 53.6176C65.5991 53.8373 65.8599 53.9803 66.1451 54.0191C66.4047 54.0666 66.6695 54.0799 66.9325 54.0585C67.7751 54.0585 67.7988 54.0112 67.9641 53.1918C68.0429 52.8136 68.1137 52.4039 68.2004 52.0652C68.2103 51.9872 68.2366 51.9123 68.2775 51.8452C68.3183 51.7782 68.3729 51.7205 68.4375 51.6759C68.5021 51.6313 68.5754 51.6008 68.6526 51.5864C68.7298 51.572 68.8091 51.5741 68.8854 51.5924C69.0823 51.5924 69.1925 51.7185 69.1768 51.9233C69.161 52.1282 69.1296 52.2542 69.0981 52.4197C68.9799 53.0106 68.8461 53.5936 68.7437 54.1845C68.7272 54.3241 68.6662 54.4546 68.5698 54.5568C68.4733 54.659 68.3466 54.7274 68.2082 54.7518C67.6244 54.8869 67.0277 54.9582 66.4286 54.9645C66.043 54.9787 65.6583 54.9199 65.2946 54.7912C64.9711 54.6979 64.6821 54.5114 64.4637 54.2551C64.2453 53.9987 64.1071 53.6838 64.0662 53.3494C63.8837 52.1673 64.1476 50.9596 64.8064 49.9615C65.0389 49.6229 65.3373 49.3347 65.6836 49.114C66.03 48.8934 66.4173 48.7449 66.8223 48.6773C67.6908 48.508 68.5839 48.508 69.4524 48.6773C69.602 48.6773 69.854 48.6773 69.791 48.9846" fill="#415464"/>
<path d="M75.8074 48.9295C75.6814 49.1816 75.5397 49.4259 75.3979 49.6701C74.7937 50.6481 74.0976 51.5662 73.319 52.4119C73.1734 52.5718 73.0728 52.7676 73.0277 52.9791C72.9253 53.4834 72.8229 53.9876 72.6891 54.484C72.5552 54.9803 72.3347 55.0434 71.9016 54.9488C71.689 54.9094 71.5866 54.807 71.6496 54.5628C71.7598 54.0822 71.8543 53.5858 71.9646 53.1052C72.0362 52.8426 72.011 52.5629 71.8937 52.3173C71.4802 51.3901 71.1788 50.4167 70.996 49.418C70.996 49.3313 70.996 49.2525 70.996 49.1659C70.9487 48.6616 71.1141 48.4962 71.6181 48.5513C71.6719 48.5523 71.7249 48.564 71.7742 48.5855C71.8235 48.607 71.8681 48.6381 71.9054 48.6769C71.9427 48.7156 71.9719 48.7614 71.9916 48.8115C72.0112 48.8616 72.0208 48.9151 72.0197 48.9689C72.1394 49.7733 72.3344 50.5647 72.6024 51.3325C72.6395 51.496 72.7121 51.6493 72.8151 51.7816C73.5287 50.9028 74.1737 49.9704 74.7443 48.9925C74.8186 48.8233 74.9501 48.6855 75.1156 48.6034C75.2812 48.5213 75.4703 48.5001 75.6499 48.5434C75.8704 48.5907 75.9413 48.6853 75.8468 48.898" fill="#415464"/>
<path d="M85.1866 49.1344C85.0212 49.5756 84.9425 49.6307 84.4779 49.5283C84.102 49.4551 83.7185 49.4286 83.3361 49.4495C83.2032 49.4583 83.0714 49.4794 82.9423 49.5126C82.7577 49.5316 82.5847 49.6117 82.4507 49.7401C82.3166 49.8685 82.2292 50.0379 82.2021 50.2216C82.1904 50.3887 82.2322 50.5551 82.3214 50.6968C82.4106 50.8384 82.5426 50.948 82.6982 51.0095C82.966 51.175 83.2494 51.3168 83.5329 51.4665C83.829 51.5855 84.0798 51.7951 84.2496 52.0654C84.4193 52.3357 84.4992 52.6528 84.4779 52.9713C84.4686 53.3321 84.3601 53.6833 84.1642 53.9863C83.9683 54.2894 83.6926 54.5324 83.3676 54.6889C82.8538 54.9083 82.2945 55.0002 81.7375 54.9567C81.343 54.9678 80.9486 54.9281 80.5642 54.8386C80.1783 54.7519 80.0839 54.6258 80.1469 54.358C80.2413 53.964 80.3437 53.8774 80.7453 53.9719C81.2838 54.0833 81.836 54.1125 82.3832 54.0586C82.594 54.0613 82.8007 54.0004 82.9764 53.8837C83.152 53.7671 83.2883 53.6001 83.3676 53.4046C83.4462 53.2345 83.4617 53.0419 83.4112 52.8614C83.3607 52.6809 83.2475 52.5243 83.092 52.4198C82.8767 52.2646 82.6473 52.1301 82.4069 52.018L82.0525 51.8368C81.7547 51.7182 81.5053 51.5032 81.344 51.2262C81.1827 50.9491 81.1188 50.6259 81.1627 50.3083C81.1719 49.96 81.2869 49.6227 81.4922 49.3413C81.6975 49.0598 81.9836 48.8475 82.3124 48.7326C83.1797 48.4679 84.103 48.4461 84.9819 48.6695C85.2653 48.7326 85.289 48.8271 85.1866 49.1029" fill="#415464"/>
<path d="M90.0524 48.6927C89.3384 48.4687 88.5689 48.4984 87.8743 48.777C87.1797 49.0555 86.6028 49.5658 86.2411 50.2212C85.8647 50.8914 85.6415 51.6368 85.5875 52.4036C85.5338 52.6929 85.5398 52.9901 85.6055 53.2769C85.6711 53.5637 85.7948 53.834 85.969 54.071C86.1432 54.3081 86.3641 54.5069 86.6182 54.6551C86.8722 54.8033 87.1539 54.8977 87.4459 54.9327C87.627 54.9327 87.8082 54.9327 87.9184 54.9721C88.5339 55.0075 89.1463 54.8614 89.6796 54.5518C90.213 54.2423 90.6438 53.783 90.9186 53.2309C91.2869 52.5375 91.4941 51.77 91.525 50.9854C91.5866 50.4913 91.4729 49.9911 91.2039 49.5722C90.9348 49.1532 90.5273 48.842 90.0524 48.6927ZM89.4067 53.5145C89.0921 53.8206 88.6791 54.0049 88.2413 54.0345C87.3042 54.1448 86.6664 53.546 86.6664 52.4588C86.695 51.6741 86.9706 50.9186 87.4538 50.3C87.66 50.003 87.9466 49.7711 88.28 49.6315C88.6134 49.4919 88.9797 49.4505 89.3358 49.5121C89.5884 49.5364 89.8254 49.6453 90.0083 49.8212C90.1913 49.9971 90.3095 50.2297 90.3438 50.4812C90.4559 51.0224 90.4288 51.5833 90.2648 52.1111C90.1009 52.6389 89.8056 53.1164 89.4067 53.4987" fill="#415464"/>
<path d="M95.9265 54.4922C95.8399 54.7679 95.706 54.8703 95.3595 54.8703C94.8241 54.8703 94.2965 54.8703 93.7846 54.8703C93.2728 54.8703 92.8869 54.8703 92.4381 54.8703C91.9892 54.8703 91.9892 54.8073 92.068 54.4213C92.2018 53.7201 92.3515 53.0189 92.5011 52.3176C92.7294 51.2461 92.9657 50.1668 93.194 49.0953C93.2806 48.6856 93.4224 48.5674 93.8397 48.5674C94.2571 48.5674 94.2965 48.6856 94.2414 49.0322C94.1547 49.5443 94.0366 50.0486 93.9342 50.5528L93.2019 54.0116C93.3574 54.0904 93.5347 54.1153 93.7059 54.0825H95.6588C95.9738 54.0825 96.0446 54.2006 95.9501 54.4922" fill="#415464"/>
<path d="M102.935 49.0947C102.857 49.5202 102.762 49.9378 102.668 50.3632C102.51 51.1511 102.345 51.8917 102.179 52.6559C102.179 52.6559 102.179 52.7189 102.179 52.7583C101.809 54.3341 100.974 54.9644 99.3208 54.9644C99.0396 54.9694 98.759 54.9376 98.4861 54.8698C98.2867 54.8424 98.095 54.7747 97.9227 54.6706C97.7504 54.5666 97.6011 54.4285 97.4839 54.2648C97.3667 54.1011 97.2841 53.9153 97.2412 53.7186C97.1982 53.5218 97.1958 53.3184 97.234 53.1207C97.3049 52.4432 97.4939 51.7814 97.6278 51.1117C97.7616 50.442 97.9191 49.7487 98.0687 49.0632C98.0838 48.9772 98.1171 48.8954 98.1662 48.8233C98.2154 48.7511 98.2794 48.6903 98.3539 48.6448C98.4284 48.5993 98.5117 48.5702 98.5984 48.5595C98.685 48.5488 98.7729 48.5567 98.8562 48.5826C98.923 48.5942 98.983 48.6308 99.0239 48.6849C99.0648 48.739 99.0837 48.8066 99.0767 48.8741C99.0725 49.0729 99.0488 49.2709 99.0058 49.465C98.7696 50.5523 98.5491 51.6474 98.3129 52.7347C98.2894 52.8993 98.2894 53.0664 98.3129 53.231C98.3121 53.447 98.3928 53.6554 98.5387 53.8145C98.6846 53.9737 98.8852 54.072 99.1003 54.0898C99.3339 54.1411 99.5757 54.1422 99.8098 54.0931C100.044 54.0441 100.265 53.946 100.458 53.8053C100.652 53.6647 100.813 53.4846 100.932 53.277C101.051 53.0693 101.124 52.8389 101.148 52.6008C101.36 51.6396 101.557 50.6784 101.762 49.7172C101.817 49.4572 101.864 49.1972 101.935 48.9293C101.974 48.849 102.028 48.7772 102.095 48.7181C102.161 48.6591 102.239 48.6139 102.323 48.5853C102.408 48.5567 102.497 48.5452 102.586 48.5515C102.675 48.5578 102.761 48.5818 102.841 48.622C102.901 48.6814 102.942 48.7573 102.959 48.84C102.976 48.9228 102.967 49.0087 102.935 49.0869" fill="#415464"/>
<path d="M108.629 49.4258C108.514 49.4418 108.397 49.4418 108.282 49.4258H107.235C106.865 49.4258 106.857 49.4258 106.778 49.7961C106.503 51.0803 106.235 52.3646 105.991 53.6488C105.928 53.9245 105.881 54.2082 105.794 54.476C105.778 54.5671 105.741 54.6532 105.685 54.7275C105.63 54.8018 105.559 54.8623 105.476 54.9043C105.394 54.9462 105.303 54.9686 105.211 54.9694C105.118 54.9703 105.027 54.9498 104.943 54.9094C104.786 54.8621 104.691 54.7676 104.747 54.5785C104.802 54.3894 104.81 54.287 104.841 54.1373L105.762 49.7961C105.762 49.7016 105.762 49.5991 105.81 49.4258C105.274 49.4258 104.794 49.4258 104.314 49.4258C104.156 49.4258 103.928 49.5204 103.873 49.2525C103.859 49.1277 103.888 49.0018 103.955 48.8958C104.022 48.7898 104.124 48.7099 104.243 48.6695C104.358 48.6574 104.474 48.6574 104.589 48.6695H108.582C108.747 48.6695 108.983 48.5749 109.023 48.8507C109.038 48.9757 109.009 49.1022 108.942 49.2085C108.874 49.3149 108.772 49.3945 108.652 49.4337" fill="#415464"/>
<path d="M110.983 49.1343L110.676 50.5761C110.424 51.7421 110.18 52.9397 109.928 54.0821C109.898 54.2621 109.85 54.4389 109.786 54.61C109.747 54.6913 109.691 54.7634 109.622 54.822C109.553 54.8805 109.473 54.9241 109.386 54.95C109.3 54.9759 109.209 54.9836 109.119 54.9725C109.029 54.9615 108.943 54.9319 108.865 54.8857C108.692 54.7754 108.763 54.6179 108.794 54.4839C108.912 53.9167 109.038 53.3494 109.157 52.7742C109.424 51.5452 109.684 50.3082 109.944 49.0713C110.031 48.6694 110.149 48.5828 110.558 48.567C110.968 48.5513 110.991 48.6458 110.976 49.1343" fill="#415464"/>
<path d="M117.551 50.5207C117.54 50.125 117.408 49.7423 117.173 49.424C116.938 49.1057 116.611 48.867 116.236 48.7401C115.572 48.5063 114.851 48.4927 114.178 48.7013C113.506 48.9099 112.919 49.3296 112.504 49.8982C111.962 50.6838 111.671 51.6149 111.669 52.5691C111.661 52.7187 111.661 52.8686 111.669 53.0182C111.686 53.3955 111.811 53.76 112.029 54.0685C112.246 54.3771 112.548 54.6168 112.897 54.7594C113.537 55.0083 114.239 55.0494 114.903 54.8769C115.567 54.7044 116.161 54.327 116.598 53.7982C117.329 52.8706 117.67 51.6954 117.551 50.5207ZM115.835 53.1049C115.668 53.3563 115.45 53.5693 115.195 53.7296C114.939 53.8899 114.653 53.9939 114.354 54.0345C114.173 54.0772 113.985 54.0801 113.803 54.043C113.621 54.0058 113.449 53.9295 113.299 53.8194C113.15 53.7093 113.026 53.5679 112.936 53.4051C112.846 53.2423 112.793 53.0619 112.779 52.8764C112.72 52.3858 112.766 51.8884 112.914 51.417C113.062 50.9456 113.309 50.5112 113.638 50.1425C113.962 49.7764 114.411 49.5458 114.898 49.4964C115.081 49.4603 115.27 49.4634 115.452 49.5056C115.634 49.5478 115.805 49.6281 115.954 49.7412C116.103 49.8544 116.226 49.9978 116.315 50.162C116.405 50.3262 116.458 50.5075 116.472 50.694C116.472 50.8358 116.472 50.9855 116.472 51.1352C116.452 51.8404 116.228 52.5246 115.827 53.1049" fill="#415464"/>
<path d="M124.291 48.8898C124.282 49.0721 124.261 49.2537 124.228 49.4334C123.874 51.1115 123.512 52.7897 123.157 54.4679C123.11 54.6963 123.071 54.9327 122.779 54.98C122.64 55.0168 122.491 54.998 122.365 54.9275C122.238 54.857 122.144 54.7402 122.102 54.6018C121.512 53.4594 120.937 52.317 120.354 51.1746C120.3 51.0074 120.202 50.8578 120.07 50.7412C119.834 51.8443 119.598 52.9394 119.37 54.0267C119.33 54.1921 119.299 54.3576 119.252 54.5151C119.133 54.9248 118.929 55.043 118.503 54.98C118.212 54.9327 118.149 54.8539 118.22 54.5388C118.608 52.6952 118.997 50.8568 119.385 49.0237C119.425 48.8188 119.488 48.6298 119.74 48.6061C119.846 48.5864 119.957 48.6 120.055 48.6451C120.154 48.6902 120.236 48.7646 120.291 48.8582C120.362 48.9764 120.417 49.0946 120.48 49.2128L122.126 52.4115C122.198 52.5935 122.305 52.7595 122.441 52.9L123.063 49.9849C123.134 49.654 123.197 49.331 123.275 49.0079C123.307 48.9234 123.356 48.8463 123.419 48.7816C123.482 48.7168 123.557 48.6658 123.641 48.6318C123.725 48.5977 123.814 48.5814 123.905 48.5837C123.995 48.5861 124.084 48.6071 124.165 48.6455C124.209 48.6702 124.244 48.7074 124.267 48.7523C124.289 48.7972 124.298 48.8478 124.291 48.8976" fill="#415464"/>
<path d="M129.386 49.0712C129.236 49.544 129.118 49.6306 128.599 49.5203C128.204 49.4486 127.802 49.4274 127.402 49.4573C127.27 49.4673 127.141 49.4938 127.016 49.5361C126.848 49.5616 126.693 49.6405 126.574 49.7612C126.455 49.8819 126.378 50.0378 126.354 50.2058C126.338 50.3656 126.37 50.5268 126.448 50.6676C126.525 50.8084 126.644 50.9222 126.787 50.9936C127.071 51.1749 127.37 51.3245 127.662 51.4821C127.951 51.5938 128.2 51.7921 128.373 52.05C128.547 52.308 128.636 52.6131 128.63 52.9239C128.633 53.2946 128.531 53.6586 128.336 53.9737C128.141 54.2889 127.861 54.5422 127.528 54.7045C127.016 54.9317 126.455 55.0265 125.898 54.9803C125.506 54.9909 125.114 54.9512 124.732 54.8621C124.346 54.7833 124.228 54.6494 124.283 54.4051C124.37 54.0033 124.496 53.9009 124.913 53.9954C125.404 54.0884 125.903 54.1228 126.402 54.0978C126.654 54.0944 126.902 54.0237 127.118 53.893C127.247 53.8242 127.357 53.7236 127.436 53.6007C127.515 53.4777 127.562 53.3366 127.571 53.1906C127.581 53.0446 127.553 52.8985 127.49 52.7664C127.427 52.6342 127.332 52.5203 127.213 52.4354C126.979 52.2743 126.734 52.1295 126.48 52.0021L126.173 51.8445C125.885 51.7253 125.644 51.5137 125.488 51.2428C125.333 50.9718 125.272 50.657 125.315 50.3476C125.328 50.0034 125.441 49.6706 125.641 49.3904C125.841 49.1103 126.12 48.8952 126.441 48.7719C127.143 48.5494 127.888 48.4981 128.614 48.6222C128.815 48.6314 129.014 48.6685 129.205 48.7325C129.24 48.7415 129.273 48.7584 129.301 48.7818C129.329 48.8053 129.352 48.8348 129.367 48.868C129.382 48.9013 129.389 48.9375 129.389 48.9741C129.388 49.0106 129.379 49.0465 129.362 49.0791" fill="#415464"/>
<path d="M52.2546 48.9769C52.2346 49.1599 52.203 49.3415 52.1601 49.5205L51.1442 54.3029C51.1442 54.3896 51.097 54.4684 51.0812 54.5471C51.0856 54.6491 51.0504 54.7487 50.9828 54.8251C50.9152 54.9016 50.8206 54.9488 50.719 54.9568C50.6054 54.9849 50.4858 54.9755 50.378 54.9301C50.2702 54.8846 50.1799 54.8056 50.1205 54.7047C50.0654 54.6023 50.0103 54.4999 49.963 54.3896C49.4197 53.3259 48.8764 52.2544 48.3251 51.1908C48.2681 51.0147 48.1615 50.8587 48.018 50.7417C47.766 51.9393 47.5219 53.1053 47.2778 54.2162C47.252 54.3444 47.2178 54.4708 47.1754 54.5944C47.138 54.6777 47.0836 54.7522 47.0157 54.8132C46.9478 54.8742 46.8679 54.9203 46.7811 54.9485C46.6943 54.9767 46.6026 54.9864 46.5118 54.977C46.421 54.9675 46.3333 54.9392 46.2541 54.8938C46.1045 54.7993 46.1438 54.6653 46.1675 54.5393C46.2698 54.0193 46.3801 53.4993 46.4903 52.9635C46.7581 51.7108 47.0179 50.4581 47.2778 49.2054C47.2778 49.1187 47.3251 49.0399 47.3408 48.9612C47.3408 48.7642 47.4353 48.5987 47.6558 48.5593C47.7623 48.535 47.8737 48.5439 47.9751 48.5847C48.0764 48.6255 48.1628 48.6964 48.2228 48.7878C48.2934 48.899 48.3565 49.0148 48.4117 49.1345L50.0812 52.3805C50.152 52.5223 50.2387 52.6641 50.3331 52.8375C50.4578 52.6122 50.5304 52.3618 50.5458 52.1048C50.7741 51.1042 50.971 50.0878 51.1915 49.0793C51.2781 48.6618 51.4592 48.5357 51.8844 48.5515C52.1758 48.5515 52.2703 48.6618 52.2467 48.9612" fill="#415464"/>
<path d="M124.291 48.8898C124.282 49.0721 124.261 49.2537 124.228 49.4334C123.874 51.1115 123.512 52.7897 123.157 54.4679C123.11 54.6963 123.071 54.9327 122.779 54.98C122.64 55.0168 122.491 54.998 122.365 54.9275C122.238 54.857 122.144 54.7402 122.102 54.6018C121.512 53.4594 120.937 52.317 120.354 51.1746C120.3 51.0074 120.202 50.8578 120.07 50.7412C119.834 51.8443 119.598 52.9394 119.37 54.0267C119.33 54.1921 119.299 54.3576 119.252 54.5151C119.133 54.9248 118.929 55.043 118.503 54.98C118.212 54.9327 118.149 54.8539 118.22 54.5388C118.608 52.6952 118.997 50.8568 119.385 49.0237C119.425 48.8188 119.488 48.6298 119.74 48.6061C119.846 48.5864 119.957 48.6 120.055 48.6451C120.154 48.6902 120.236 48.7646 120.291 48.8582C120.362 48.9764 120.417 49.0946 120.48 49.2128L122.126 52.4115C122.198 52.5935 122.305 52.7595 122.441 52.9L123.063 49.9849C123.134 49.654 123.197 49.331 123.275 49.0079C123.307 48.9234 123.356 48.8463 123.419 48.7816C123.482 48.7168 123.557 48.6658 123.641 48.6318C123.725 48.5977 123.814 48.5814 123.905 48.5837C123.995 48.5861 124.084 48.6071 124.165 48.6455C124.209 48.6702 124.244 48.7074 124.267 48.7523C124.289 48.7972 124.298 48.8478 124.291 48.8976" fill="#415464"/>
<path d="M90.0524 48.6927C89.3384 48.4687 88.5689 48.4984 87.8743 48.777C87.1797 49.0555 86.6028 49.5658 86.2411 50.2212C85.8647 50.8914 85.6415 51.6368 85.5875 52.4036C85.5338 52.6929 85.5398 52.9901 85.6055 53.2769C85.6711 53.5637 85.7948 53.834 85.969 54.071C86.1432 54.3081 86.3641 54.5069 86.6182 54.6551C86.8722 54.8033 87.1539 54.8977 87.4459 54.9327C87.627 54.9327 87.8082 54.9327 87.9184 54.9721C88.5339 55.0075 89.1463 54.8614 89.6796 54.5518C90.213 54.2423 90.6438 53.783 90.9186 53.2309C91.2869 52.5375 91.4941 51.77 91.525 50.9854C91.5866 50.4913 91.4729 49.9911 91.2039 49.5722C90.9348 49.1532 90.5273 48.842 90.0524 48.6927ZM89.4067 53.5145C89.0921 53.8206 88.6791 54.0049 88.2413 54.0345C87.3042 54.1448 86.6664 53.546 86.6664 52.4588C86.695 51.6741 86.9706 50.9186 87.4538 50.3C87.66 50.003 87.9466 49.7711 88.28 49.6315C88.6134 49.4919 88.9797 49.4505 89.3358 49.5121C89.5884 49.5364 89.8254 49.6453 90.0083 49.8212C90.1913 49.9971 90.3095 50.2297 90.3438 50.4812C90.4559 51.0224 90.4288 51.5833 90.2648 52.1111C90.1009 52.6389 89.8056 53.1164 89.4067 53.4987" fill="#415464"/>
<path d="M117.551 50.5207C117.54 50.125 117.408 49.7423 117.173 49.424C116.938 49.1057 116.611 48.867 116.236 48.7401C115.572 48.5063 114.851 48.4927 114.178 48.7013C113.506 48.9099 112.919 49.3296 112.504 49.8982C111.962 50.6838 111.671 51.6149 111.669 52.5691C111.661 52.7187 111.661 52.8686 111.669 53.0182C111.686 53.3955 111.811 53.76 112.029 54.0685C112.246 54.3771 112.548 54.6168 112.897 54.7594C113.537 55.0083 114.239 55.0494 114.903 54.8769C115.567 54.7044 116.161 54.327 116.598 53.7982C117.329 52.8706 117.67 51.6954 117.551 50.5207ZM115.835 53.1049C115.668 53.3563 115.45 53.5693 115.195 53.7296C114.939 53.8899 114.653 53.9939 114.354 54.0345C114.173 54.0772 113.985 54.0801 113.803 54.043C113.621 54.0058 113.449 53.9295 113.299 53.8194C113.15 53.7093 113.026 53.5679 112.936 53.4051C112.846 53.2423 112.793 53.0619 112.779 52.8764C112.72 52.3858 112.766 51.8884 112.914 51.417C113.062 50.9456 113.309 50.5112 113.638 50.1425C113.962 49.7764 114.411 49.5458 114.898 49.4964C115.081 49.4603 115.27 49.4634 115.452 49.5056C115.634 49.5478 115.805 49.6281 115.954 49.7412C116.103 49.8544 116.226 49.9978 116.315 50.162C116.405 50.3262 116.458 50.5075 116.472 50.694C116.472 50.8358 116.472 50.9855 116.472 51.1352C116.452 51.8404 116.228 52.5246 115.827 53.1049" fill="#415464"/>
<path d="M61.8931 52.3568C62.3019 52.1612 62.6435 51.8487 62.8747 51.4588C63.106 51.0689 63.2166 50.6192 63.1925 50.1665C63.2247 49.8462 63.1406 49.525 62.9555 49.2617C62.7704 48.9983 62.4967 48.8105 62.1845 48.7326C61.8015 48.6055 61.3986 48.5494 60.9954 48.5672C60.533 48.5769 60.0721 48.6243 59.6174 48.709C59.4759 48.7229 59.3436 48.7855 59.2431 48.886C59.1426 48.9866 59.08 49.1189 59.0661 49.2605C58.7118 50.9702 58.3417 52.6798 57.9794 54.3895C57.8849 54.8701 57.9794 54.9883 58.4755 54.9647C58.5938 54.9681 58.7093 54.9285 58.8006 54.8531C58.8918 54.7778 58.9526 54.6718 58.9717 54.555C59.074 54.1532 59.1606 53.7671 59.263 53.3416C59.3103 53.121 59.3024 52.8295 59.4441 52.6877C59.5859 52.5459 59.8851 52.6877 60.1135 52.6877C60.5702 52.6877 60.5702 52.6877 60.7198 53.1447C60.8694 53.6016 61.0348 54.1295 61.208 54.6101C61.2348 54.6861 61.277 54.7558 61.332 54.8147C61.387 54.8735 61.4535 54.9204 61.5275 54.9522C61.6015 54.9841 61.6813 55.0002 61.7619 54.9996C61.8424 54.999 61.922 54.9818 61.9955 54.9489C62.279 54.8622 62.3262 54.7125 62.1924 54.3028C62.0585 53.8931 61.8616 53.318 61.6884 52.8374C61.6018 52.6168 61.6175 52.4907 61.8617 52.3726M60.2867 51.8526H60.1922C59.5859 51.7974 59.5701 51.7738 59.6961 51.1986C59.7906 50.7417 59.893 50.2847 59.9796 49.8278C59.9873 49.7294 60.0308 49.6373 60.102 49.569C60.1732 49.5007 60.2669 49.461 60.3655 49.4575C60.7401 49.3867 61.1247 49.3867 61.4994 49.4575C61.6855 49.5005 61.8495 49.6098 61.9611 49.7648C62.0726 49.9199 62.124 50.1103 62.1058 50.3005C62.1017 50.5257 62.0495 50.7474 61.9526 50.9507C61.8557 51.1539 61.7163 51.3341 61.5439 51.4789C61.3715 51.6238 61.1701 51.73 60.9533 51.7904C60.7364 51.8507 60.5091 51.8639 60.2867 51.8289" fill="#415464"/>
<path d="M69.7989 49.0161C69.728 49.41 69.5548 49.6149 69.2634 49.5834C68.7831 49.5834 68.3027 49.4652 67.8224 49.4731C67.2508 49.4304 66.6833 49.5971 66.2255 49.9421C65.7677 50.2871 65.4509 50.7868 65.334 51.3482C65.1866 51.8276 65.1201 52.3281 65.1371 52.8294C65.1287 53.1172 65.2269 53.398 65.413 53.6176C65.5991 53.8373 65.8599 53.9803 66.1451 54.0191C66.4047 54.0666 66.6695 54.0799 66.9325 54.0585C67.7751 54.0585 67.7988 54.0112 67.9641 53.1918C68.0429 52.8136 68.1137 52.4039 68.2004 52.0652C68.2103 51.9872 68.2366 51.9123 68.2775 51.8452C68.3183 51.7782 68.3729 51.7205 68.4375 51.6759C68.5021 51.6313 68.5754 51.6008 68.6526 51.5864C68.7298 51.572 68.8091 51.5741 68.8854 51.5924C69.0823 51.5924 69.1925 51.7185 69.1768 51.9233C69.161 52.1282 69.1296 52.2542 69.0981 52.4197C68.9799 53.0106 68.8461 53.5936 68.7437 54.1845C68.7272 54.3241 68.6662 54.4546 68.5698 54.5568C68.4733 54.659 68.3466 54.7274 68.2082 54.7518C67.6244 54.8869 67.0277 54.9582 66.4286 54.9645C66.043 54.9787 65.6583 54.9199 65.2946 54.7912C64.9711 54.6979 64.6821 54.5114 64.4637 54.2551C64.2453 53.9987 64.1071 53.6838 64.0662 53.3494C63.8837 52.1673 64.1476 50.9596 64.8064 49.9615C65.0389 49.6229 65.3373 49.3347 65.6836 49.114C66.03 48.8934 66.4173 48.7449 66.8223 48.6773C67.6908 48.508 68.5839 48.508 69.4524 48.6773C69.602 48.6773 69.854 48.6773 69.791 48.9846" fill="#415464"/>
<path d="M102.935 49.0947C102.857 49.5202 102.762 49.9378 102.668 50.3632C102.51 51.1511 102.345 51.8917 102.179 52.6559C102.179 52.6559 102.179 52.7189 102.179 52.7583C101.809 54.3341 100.974 54.9644 99.3208 54.9644C99.0396 54.9694 98.759 54.9376 98.4861 54.8698C98.2867 54.8424 98.095 54.7747 97.9227 54.6706C97.7504 54.5666 97.6011 54.4285 97.4839 54.2648C97.3667 54.1011 97.2841 53.9153 97.2412 53.7186C97.1982 53.5218 97.1958 53.3184 97.234 53.1207C97.3049 52.4432 97.4939 51.7814 97.6278 51.1117C97.7616 50.442 97.9191 49.7487 98.0687 49.0632C98.0838 48.9772 98.1171 48.8954 98.1662 48.8233C98.2154 48.7511 98.2794 48.6903 98.3539 48.6448C98.4284 48.5993 98.5117 48.5702 98.5984 48.5595C98.685 48.5488 98.7729 48.5567 98.8562 48.5826C98.923 48.5942 98.983 48.6308 99.0239 48.6849C99.0648 48.739 99.0837 48.8066 99.0767 48.8741C99.0725 49.0729 99.0488 49.2709 99.0058 49.465C98.7696 50.5523 98.5491 51.6474 98.3129 52.7347C98.2894 52.8993 98.2894 53.0664 98.3129 53.231C98.3121 53.447 98.3928 53.6554 98.5387 53.8145C98.6846 53.9737 98.8852 54.072 99.1003 54.0898C99.3339 54.1411 99.5757 54.1422 99.8098 54.0931C100.044 54.0441 100.265 53.946 100.458 53.8053C100.652 53.6647 100.813 53.4846 100.932 53.277C101.051 53.0693 101.124 52.8389 101.148 52.6008C101.36 51.6396 101.557 50.6784 101.762 49.7172C101.817 49.4572 101.864 49.1972 101.935 48.9293C101.974 48.849 102.028 48.7772 102.095 48.7181C102.161 48.6591 102.239 48.6139 102.323 48.5853C102.408 48.5567 102.497 48.5452 102.586 48.5515C102.675 48.5578 102.761 48.5818 102.841 48.622C102.901 48.6814 102.942 48.7573 102.959 48.84C102.976 48.9228 102.967 49.0087 102.935 49.0869" fill="#415464"/>
<path d="M46.0646 48.9296C46.0702 49.0032 46.0602 49.0771 46.0351 49.1465C46.01 49.2158 45.9705 49.2791 45.9191 49.332C45.8677 49.3849 45.8056 49.4263 45.737 49.4533C45.6684 49.4804 45.5949 49.4925 45.5212 49.489C45.1196 49.489 44.7337 49.4338 44.3243 49.4338C43.9148 49.4338 43.6234 49.4338 43.2769 49.4338C43.2312 49.4284 43.1848 49.4323 43.1407 49.4454C43.0965 49.4585 43.0555 49.4805 43.0201 49.51C42.9847 49.5395 42.9558 49.5759 42.9349 49.617C42.9141 49.6581 42.9018 49.703 42.899 49.749C42.8123 50.2217 42.71 50.6944 42.5997 51.2459H44.3006C44.4975 51.2459 44.7653 51.1671 44.781 51.5138C44.79 51.581 44.7845 51.6493 44.7649 51.7141C44.7452 51.779 44.7118 51.8388 44.667 51.8896C44.6222 51.9404 44.567 51.981 44.5051 52.0086C44.4433 52.0362 44.3762 52.0502 44.3085 52.0495C43.8282 52.0495 43.3478 52.0495 42.8596 52.0495C42.3714 52.0495 42.4265 52.0496 42.3241 52.4986C42.2218 52.9477 42.1745 53.1841 42.1036 53.5229C42.0328 53.8617 42.0249 53.972 42.4501 54.0113C43.1127 54.0744 43.7798 54.0744 44.4424 54.0113C44.6314 54.0113 44.8597 53.901 44.8912 54.2319C44.9227 54.5629 44.8283 54.7835 44.5133 54.8228C43.4241 54.9764 42.3187 54.9764 41.2295 54.8228C40.8752 54.7677 40.8201 54.6653 40.9067 54.2477L41.6941 50.4423C41.7808 50.0326 41.8674 49.6544 41.9619 49.2211C42.0564 48.7878 42.1509 48.6932 42.6233 48.6302C43.6168 48.5041 44.6222 48.5041 45.6157 48.6302C45.7968 48.6302 46.0488 48.6302 46.0488 48.906" fill="#415464"/>
<path d="M57.8616 48.9531C57.8659 49.0277 57.8536 49.1023 57.8255 49.1715C57.7974 49.2407 57.7543 49.3028 57.6993 49.3534C57.6443 49.4039 57.5787 49.4415 57.5074 49.4636C57.4361 49.4857 57.3607 49.4916 57.2868 49.481C56.655 49.4376 56.0209 49.4376 55.389 49.481C55.2894 49.489 55.1894 49.489 55.0898 49.481C54.8457 49.481 54.7275 49.5834 54.6882 49.8198C54.6016 50.2925 54.4992 50.7652 54.3889 51.2931H56.1529C56.334 51.2931 56.5387 51.2931 56.5702 51.5294C56.584 51.6451 56.5579 51.7619 56.4963 51.8608C56.4348 51.9596 56.3414 52.0345 56.2316 52.0731C56.0185 52.111 55.8024 52.1294 55.5859 52.1282H54.4834C54.326 52.1282 54.2 52.1282 54.1606 52.3488C54.074 52.8215 53.9716 53.2943 53.8613 53.767C53.8141 53.9797 53.8614 54.0664 54.1133 54.0821C54.8073 54.1491 55.5061 54.1491 56.2001 54.0821C56.6175 54.0427 56.6568 54.0821 56.6805 54.3185C56.6805 54.6809 56.6096 54.8542 56.2867 54.8936C55.2126 55.0354 54.1244 55.0354 53.0503 54.8936C52.6723 54.8385 52.6093 54.7439 52.688 54.3421C52.8455 53.5543 53.0109 52.8137 53.1763 52.0494C53.3731 51.1355 53.5621 50.2295 53.759 49.3155C53.8692 48.8192 53.9558 48.7561 54.4519 48.6931C55.4303 48.5789 56.4187 48.5789 57.397 48.6931C57.7987 48.7404 57.8774 48.7877 57.8616 49.0004" fill="#415464"/>
<path d="M85.1866 49.1344C85.0212 49.5756 84.9425 49.6307 84.4779 49.5283C84.102 49.4551 83.7185 49.4286 83.3361 49.4495C83.2032 49.4583 83.0714 49.4794 82.9423 49.5126C82.7577 49.5316 82.5847 49.6117 82.4507 49.7401C82.3166 49.8685 82.2292 50.0379 82.2021 50.2216C82.1904 50.3887 82.2322 50.5551 82.3214 50.6968C82.4106 50.8384 82.5426 50.948 82.6982 51.0095C82.966 51.175 83.2494 51.3168 83.5329 51.4665C83.829 51.5855 84.0798 51.7951 84.2496 52.0654C84.4193 52.3357 84.4992 52.6528 84.4779 52.9713C84.4686 53.3321 84.3601 53.6833 84.1642 53.9863C83.9683 54.2894 83.6926 54.5324 83.3676 54.6889C82.8538 54.9083 82.2945 55.0002 81.7375 54.9567C81.343 54.9678 80.9486 54.9281 80.5642 54.8386C80.1783 54.7519 80.0839 54.6258 80.1469 54.358C80.2413 53.964 80.3437 53.8774 80.7453 53.9719C81.2838 54.0833 81.836 54.1125 82.3832 54.0586C82.594 54.0613 82.8007 54.0004 82.9764 53.8837C83.152 53.7671 83.2883 53.6001 83.3676 53.4046C83.4462 53.2345 83.4617 53.0419 83.4112 52.8614C83.3607 52.6809 83.2475 52.5243 83.092 52.4198C82.8767 52.2646 82.6473 52.1301 82.4069 52.018L82.0525 51.8368C81.7547 51.7182 81.5053 51.5032 81.344 51.2262C81.1827 50.9491 81.1188 50.6259 81.1627 50.3083C81.1719 49.96 81.2869 49.6227 81.4922 49.3413C81.6975 49.0598 81.9836 48.8475 82.3124 48.7326C83.1797 48.4679 84.103 48.4461 84.9819 48.6695C85.2653 48.7326 85.289 48.8271 85.1866 49.1029" fill="#415464"/>
<path d="M129.386 49.0712C129.236 49.544 129.118 49.6306 128.599 49.5203C128.204 49.4486 127.802 49.4274 127.402 49.4573C127.27 49.4673 127.141 49.4938 127.016 49.5361C126.848 49.5616 126.693 49.6405 126.574 49.7612C126.455 49.8819 126.378 50.0378 126.354 50.2058C126.338 50.3656 126.37 50.5268 126.448 50.6676C126.525 50.8084 126.644 50.9222 126.787 50.9936C127.071 51.1749 127.37 51.3245 127.662 51.4821C127.951 51.5938 128.2 51.7921 128.373 52.05C128.547 52.308 128.636 52.6131 128.63 52.9239C128.633 53.2946 128.531 53.6586 128.336 53.9737C128.141 54.2889 127.861 54.5422 127.528 54.7045C127.016 54.9317 126.455 55.0265 125.898 54.9803C125.506 54.9909 125.114 54.9512 124.732 54.8621C124.346 54.7833 124.228 54.6494 124.283 54.4051C124.37 54.0033 124.496 53.9009 124.913 53.9954C125.404 54.0884 125.903 54.1228 126.402 54.0978C126.654 54.0944 126.902 54.0237 127.118 53.893C127.247 53.8242 127.357 53.7236 127.436 53.6007C127.515 53.4777 127.562 53.3366 127.571 53.1906C127.581 53.0446 127.553 52.8985 127.49 52.7664C127.427 52.6342 127.332 52.5203 127.213 52.4354C126.979 52.2743 126.734 52.1295 126.48 52.0021L126.173 51.8445C125.885 51.7253 125.644 51.5137 125.488 51.2428C125.333 50.9718 125.272 50.657 125.315 50.3476C125.328 50.0034 125.441 49.6706 125.641 49.3904C125.841 49.1103 126.12 48.8952 126.441 48.7719C127.143 48.5494 127.888 48.4981 128.614 48.6222C128.815 48.6314 129.014 48.6685 129.205 48.7325C129.24 48.7415 129.273 48.7584 129.301 48.7818C129.329 48.8053 129.352 48.8348 129.367 48.868C129.382 48.9013 129.389 48.9375 129.389 48.9741C129.388 49.0106 129.379 49.0465 129.362 49.0791" fill="#415464"/>
<path d="M75.8074 48.9295C75.6814 49.1816 75.5397 49.4259 75.3979 49.6701C74.7937 50.6481 74.0976 51.5662 73.319 52.4119C73.1734 52.5718 73.0728 52.7676 73.0277 52.9791C72.9253 53.4834 72.8229 53.9876 72.6891 54.484C72.5552 54.9803 72.3347 55.0434 71.9016 54.9488C71.689 54.9094 71.5866 54.807 71.6496 54.5628C71.7598 54.0822 71.8543 53.5858 71.9646 53.1052C72.0362 52.8426 72.011 52.5629 71.8937 52.3173C71.4802 51.3901 71.1788 50.4167 70.996 49.418C70.996 49.3313 70.996 49.2525 70.996 49.1659C70.9487 48.6616 71.1141 48.4962 71.6181 48.5513C71.6719 48.5523 71.7249 48.564 71.7742 48.5855C71.8235 48.607 71.8681 48.6381 71.9054 48.6769C71.9427 48.7156 71.9719 48.7614 71.9916 48.8115C72.0112 48.8616 72.0208 48.9151 72.0197 48.9689C72.1394 49.7733 72.3344 50.5647 72.6024 51.3325C72.6395 51.496 72.7121 51.6493 72.8151 51.7816C73.5287 50.9028 74.1737 49.9704 74.7443 48.9925C74.8186 48.8233 74.9501 48.6855 75.1156 48.6034C75.2812 48.5213 75.4703 48.5001 75.6499 48.5434C75.8704 48.5907 75.9413 48.6853 75.8468 48.898" fill="#415464"/>
<path d="M108.629 49.4258C108.514 49.4418 108.397 49.4418 108.282 49.4258H107.235C106.865 49.4258 106.857 49.4258 106.778 49.7961C106.503 51.0803 106.235 52.3646 105.991 53.6488C105.928 53.9245 105.881 54.2082 105.794 54.476C105.778 54.5671 105.741 54.6532 105.685 54.7275C105.63 54.8018 105.559 54.8623 105.476 54.9043C105.394 54.9462 105.303 54.9686 105.211 54.9694C105.118 54.9703 105.027 54.9498 104.943 54.9094C104.786 54.8621 104.691 54.7676 104.747 54.5785C104.802 54.3894 104.81 54.287 104.841 54.1373L105.762 49.7961C105.762 49.7016 105.762 49.5991 105.81 49.4258C105.274 49.4258 104.794 49.4258 104.314 49.4258C104.156 49.4258 103.928 49.5204 103.873 49.2525C103.859 49.1277 103.888 49.0018 103.955 48.8958C104.022 48.7898 104.124 48.7099 104.243 48.6695C104.358 48.6574 104.474 48.6574 104.589 48.6695H108.582C108.747 48.6695 108.983 48.5749 109.023 48.8507C109.038 48.9757 109.009 49.1022 108.942 49.2085C108.874 49.3149 108.772 49.3945 108.652 49.4337" fill="#415464"/>
<path d="M95.9265 54.4922C95.8399 54.7679 95.706 54.8703 95.3595 54.8703C94.8241 54.8703 94.2965 54.8703 93.7846 54.8703C93.2728 54.8703 92.8869 54.8703 92.4381 54.8703C91.9892 54.8703 91.9892 54.8073 92.068 54.4213C92.2018 53.7201 92.3515 53.0189 92.5011 52.3176C92.7294 51.2461 92.9657 50.1668 93.194 49.0953C93.2806 48.6856 93.4224 48.5674 93.8397 48.5674C94.2571 48.5674 94.2965 48.6856 94.2414 49.0322C94.1547 49.5443 94.0366 50.0486 93.9342 50.5528L93.2019 54.0116C93.3574 54.0904 93.5347 54.1153 93.7059 54.0825H95.6588C95.9738 54.0825 96.0446 54.2006 95.9501 54.4922" fill="#415464"/>
<path d="M110.983 49.1343L110.676 50.5761C110.424 51.7421 110.18 52.9397 109.928 54.0821C109.898 54.2621 109.85 54.4389 109.786 54.61C109.747 54.6913 109.691 54.7634 109.622 54.822C109.553 54.8805 109.473 54.9241 109.386 54.95C109.3 54.9759 109.209 54.9836 109.119 54.9725C109.029 54.9615 108.943 54.9319 108.865 54.8857C108.692 54.7754 108.763 54.6179 108.794 54.4839C108.912 53.9167 109.038 53.3494 109.157 52.7742C109.424 51.5452 109.684 50.3082 109.944 49.0713C110.031 48.6694 110.149 48.5828 110.558 48.567C110.968 48.5513 110.991 48.6458 110.976 49.1343" fill="#415464"/>
<path d="M64.3888 3.40651C64.0717 2.60145 63.513 1.91456 62.7895 1.44045C62.066 0.966347 61.2134 0.728357 60.3491 0.759265H41.1114C40.9539 0.759265 40.7728 0.696236 40.6389 0.845931C40.5721 1.01628 40.5557 1.20226 40.5917 1.38168C40.5917 7.40099 40.5917 13.4203 40.5917 19.4396C40.5917 19.5736 40.5917 19.7075 40.5917 19.8415C40.5917 19.9754 40.5129 20.133 40.3003 20.1487L40.8358 20.1014H40.9303H41.0878L48.7813 19.3136H49.0096L49.6002 19.2505C49.4112 19.2505 49.3325 19.156 49.3482 18.9433C49.364 18.7306 49.3482 18.7069 49.3482 18.5887V9.07916C49.5465 9.04762 49.7485 9.04762 49.9467 9.07916C53.4903 9.07916 57.0339 9.07916 60.5853 9.07916C61.2544 9.07471 61.9124 8.90721 62.5022 8.59115C63.0921 8.2751 63.5961 7.82002 63.9707 7.26527C64.3452 6.71052 64.579 6.07281 64.6519 5.40733C64.7247 4.74184 64.6344 4.06862 64.3888 3.4459" fill="#415464"/>
<path d="M63.5706 37.7255C63.176 37.2842 62.6894 36.9349 62.1452 36.7021C61.6009 36.4693 61.0123 36.3588 60.4208 36.3783H49.916C49.7182 36.41 49.5157 36.3938 49.3254 36.331C49.3254 35.5431 49.3254 34.7553 49.3254 33.9674V27.9638C49.3254 27.5305 49.3254 27.4754 49.6247 27.4438C49.3018 27.4438 43.9943 27.8614 40.1357 28.4444C40.561 28.3893 40.561 28.4444 40.561 29.0275C40.561 34.0462 40.561 39.0649 40.561 44.0836C40.561 44.257 40.498 44.4539 40.624 44.6115C40.8189 44.651 41.0197 44.651 41.2146 44.6115H60.6728C61.471 44.5995 62.2473 44.3484 62.9014 43.8905C63.5555 43.4327 64.0574 42.7892 64.3423 42.0431C64.6643 41.3205 64.7614 40.5178 64.6209 39.7392C64.4805 38.9607 64.109 38.2426 63.5549 37.6783" fill="#415464"/>
<path d="M105.952 45.3761H85.2019C82.5032 45.3859 79.8285 44.8694 77.3272 43.8556C74.3368 42.6341 71.6844 40.71 69.5944 38.2459C67.2306 35.4449 65.5558 32.1286 64.7042 28.563C64.5861 28.0982 64.4837 27.6255 64.405 27.1449C64.3656 26.9243 64.2711 26.8376 64.0428 26.8455C62.5781 26.8455 61.1134 26.8061 59.6487 26.9164C59.4282 26.9164 59.2156 26.9164 58.9951 26.9164C57.0973 26.9164 55.2074 27.0661 53.3096 27.1606C52.1521 27.2158 50.9866 27.334 49.8291 27.4206H49.6716C49.3487 27.4206 44.0412 27.8382 40.1827 28.4212H40.0094C38.1668 28.7048 36.3241 28.9648 34.4972 29.28C32.1348 29.6818 29.8511 30.123 27.5439 30.6272C24.394 31.3363 21.2442 32.1321 18.0943 33.0933C15.1188 33.9945 12.1909 35.0464 9.32199 36.2447C7.49508 37.0326 5.71541 37.8756 3.95149 38.7896C2.82542 39.3726 1.73872 40.0108 0.652023 40.6647C0.478561 40.7895 0.287469 40.8878 0.0850491 40.9562C-0.0330703 40.8223 0.00629801 40.6883 0.00629801 40.5623C0.00629801 37.7417 0.00629801 34.929 0.00629801 32.1084C-0.00485033 31.9627 0.0282919 31.817 0.101366 31.6905C0.174441 31.564 0.28405 31.4625 0.415794 31.3994C3.70894 29.4711 7.17588 27.8568 10.7709 26.5776C14.3804 25.2781 18.0612 24.1864 21.7954 23.3079C25.0319 22.5201 28.292 21.8898 31.5678 21.3383C33.9302 20.9443 36.2926 20.6055 38.6156 20.2746C39.1826 20.1959 39.7417 20.125 40.3008 20.0698L40.8362 20.0225H41.0882L43.5057 19.7547C45.2382 19.5734 46.9785 19.4001 48.7187 19.2741H48.7817H49.0101L49.6007 19.211H49.6479L51.4906 19.085C52.1048 19.0377 52.719 18.9668 53.3333 18.9353C54.2625 18.8801 55.1917 18.8486 56.1209 18.8013C58.3809 18.6753 60.6488 18.5965 62.9088 18.5807C63.2789 18.5807 63.6411 18.5335 64.0113 18.5335C64.0551 18.5401 64.0999 18.5375 64.1426 18.5257C64.1854 18.5139 64.2252 18.4931 64.2594 18.4649C64.2935 18.4366 64.3214 18.4014 64.3411 18.3617C64.3607 18.3219 64.3718 18.2784 64.3735 18.2341C64.4759 17.7062 64.6019 17.1862 64.7279 16.6583C65.5533 13.2247 67.1534 10.0257 69.4054 7.30633C72.6322 3.43832 77.1826 0.91059 82.1701 0.215509C83.0565 0.0814262 83.9512 0.0103366 84.8475 0.00278091H106.345C106.379 -0.00265982 106.413 -9.11844e-05 106.445 0.0102585C106.477 0.0206083 106.506 0.0384402 106.53 0.0623015C106.554 0.0861627 106.572 0.115358 106.582 0.147477C106.592 0.179595 106.595 0.213715 106.589 0.247018C106.589 0.365199 106.589 0.475502 106.589 0.593683V44.7143C106.589 45.3683 106.668 45.3368 105.975 45.3368" fill="#A4CA62"/>
<path d="M95.8016 19.6286H100.597C101.096 19.6329 101.591 19.7181 102.062 19.8807C102.493 20.0186 102.888 20.2476 103.223 20.5521C103.557 20.8566 103.822 21.2295 103.999 21.6456C104.257 22.2258 104.409 22.8475 104.448 23.4813C104.639 25.9639 104.312 28.4592 103.487 30.8085C102.717 32.9644 101.523 34.944 99.9752 36.6308C98.386 38.4033 96.3846 39.7564 94.148 40.5702C93.0032 40.9666 91.817 41.2309 90.6123 41.3581C89.5006 41.4735 88.3817 41.5025 87.2655 41.4447C83.6972 41.3825 80.2438 40.1718 77.4171 37.9921C74.5903 35.8124 72.5405 32.7796 71.5714 29.3431C70.2122 24.637 70.4279 19.6153 72.1856 15.0432C73.2987 12.2765 75.1139 9.8481 77.452 7.99797C79.79 6.14784 82.57 4.93996 85.5174 4.49366C89.6869 3.79323 93.971 4.44184 97.7467 6.34516C98.9187 6.93333 99.9708 7.73488 100.849 8.70877C101.5 9.38681 101.928 10.247 102.078 11.1748C102.153 11.6878 102.109 12.2114 101.949 12.7046C101.79 13.1979 101.518 13.6477 101.156 14.019C100.596 14.6582 99.8286 15.079 98.9888 15.2073C98.1489 15.3356 97.2907 15.1631 96.5655 14.7202C95.7071 14.2396 94.8646 13.7432 94.0456 13.1996C92.819 12.4166 91.4388 11.9061 89.998 11.7027C88.6489 11.4653 87.2629 11.5463 85.9505 11.939C84.8892 12.2681 83.9032 12.8036 83.0492 13.5147C82.1952 14.2259 81.4899 15.0987 80.9737 16.0832C80.1186 17.6334 79.5982 19.3458 79.446 21.1098C79.1422 23.5833 79.4255 26.0936 80.2729 28.437C80.9747 30.4351 82.3724 32.1133 84.2102 33.1642C85.2325 33.7248 86.3574 34.0732 87.5175 34.1884C88.5709 34.3097 89.6374 34.2431 90.6674 33.9915C91.7065 33.7426 92.671 33.2488 93.4806 32.5512C94.2902 31.8536 94.9213 30.9725 95.3213 29.9812C95.7017 29.1081 95.9664 28.189 96.1088 27.2473C96.1639 26.9164 96.1639 26.9085 95.8331 26.9085H93.1322C92.3447 26.9085 91.5966 26.9085 90.8328 26.9085C89.9796 26.8976 89.1612 26.5684 88.5379 25.9855C87.9145 25.4026 87.531 24.608 87.4624 23.7571C87.3838 23.2528 87.4155 22.7374 87.5553 22.2466C87.695 21.7557 87.9395 21.301 88.2718 20.9138C88.6042 20.5266 89.0165 20.2161 89.4804 20.0038C89.9443 19.7914 90.4486 19.6822 90.9587 19.6838L95.8016 19.6286Z" fill="#415464"/>
<path d="M129.323 24.3479C129.014 25.2719 128.426 26.0775 127.641 26.6543C126.855 27.2312 125.911 27.5511 124.937 27.5703H116.669V17.848H124.772C125.986 17.8327 127.158 18.297 128.032 19.1401C128.755 19.7709 129.267 20.6089 129.498 21.5405C129.729 22.472 129.668 23.4521 129.323 24.3479Z" fill="#415464"/>
<path d="M131.906 39.4355C132.064 40.1363 132.064 40.8635 131.906 41.5644C131.748 42.2652 131.436 42.922 130.993 43.4871C130.549 44.0522 129.986 44.5113 129.343 44.8313C128.7 45.1512 127.994 45.3238 127.276 45.3367H108.928C108.448 45.3367 108.448 45.3367 108.448 44.7773V0.656608C108.448 -0.0603531 108.377 0.00267493 109.078 0.00267493C115.11 0.00267493 121.142 0.00267493 127.189 0.00267493C128.099 -0.0219638 128.995 0.221946 129.767 0.70395C130.539 1.18595 131.151 1.8847 131.528 2.71295C131.868 3.39845 132.041 4.15464 132.033 4.9198C132.025 5.68496 131.837 6.43741 131.483 7.11574C131.129 7.79406 130.62 8.37903 129.997 8.82291C129.374 9.26679 128.655 9.55699 127.898 9.66983C127.584 9.6935 127.268 9.6935 126.953 9.66983H116.992C116.756 9.66983 116.653 9.77225 116.669 10.0007C116.673 10.0348 116.673 10.0691 116.669 10.1032V11.3795V28.7126V34.8895C116.669 35.0234 116.669 35.1574 116.669 35.2913C116.669 35.4253 116.748 35.5592 116.937 35.5592C117.126 35.5592 117.204 35.5592 117.338 35.5592C120.606 35.5592 123.874 35.5592 127.134 35.5592C128.245 35.551 129.325 35.9245 130.193 36.6171C131.062 37.3097 131.667 38.2796 131.906 39.3646" fill="#A4CA62"/>
</svg>
